<mxfile host="app.diagrams.net" modified="2021-10-28T01:48:36.851Z" agent="5.0 (Windows NT 10.0; Win64; x64) AppleWebKit/537.36 (KHTML, like Gecko) Chrome/95.0.4638.54 Safari/537.36" etag="PymItgiDHne9jqPpp3FT" version="15.5.9" type="github">
  <diagram id="a6BFXI96pdFTCdFoHDSf" name="第 1 页">
    <mxGraphModel dx="1822" dy="762" grid="1" gridSize="10" guides="1" tooltips="1" connect="1" arrows="1" fold="1" page="0" pageScale="1" pageWidth="827" pageHeight="1169" math="0" shadow="0">
      <root>
        <mxCell id="0" />
        <mxCell id="1" parent="0" />
        <mxCell id="GGdY-6drhwlK6557A2JQ-7" style="edgeStyle=orthogonalEdgeStyle;rounded=1;orthogonalLoop=1;jettySize=auto;html=1;exitX=1;exitY=0.5;exitDx=0;exitDy=0;entryX=0;entryY=0.5;entryDx=0;entryDy=0;dashed=1;" edge="1" parent="1" source="GGdY-6drhwlK6557A2JQ-1" target="GGdY-6drhwlK6557A2JQ-3">
          <mxGeometry relative="1" as="geometry" />
        </mxCell>
        <mxCell id="GGdY-6drhwlK6557A2JQ-8" style="edgeStyle=orthogonalEdgeStyle;rounded=1;orthogonalLoop=1;jettySize=auto;html=1;exitX=1;exitY=0.5;exitDx=0;exitDy=0;entryX=0;entryY=0.5;entryDx=0;entryDy=0;dashed=1;" edge="1" parent="1" source="GGdY-6drhwlK6557A2JQ-1" target="GGdY-6drhwlK6557A2JQ-4">
          <mxGeometry relative="1" as="geometry" />
        </mxCell>
        <mxCell id="GGdY-6drhwlK6557A2JQ-1" value="AnyDATA" style="rounded=1;whiteSpace=wrap;html=1;strokeColor=#000059;fillColor=#000059;fontColor=#FFFFFF;" vertex="1" parent="1">
          <mxGeometry x="-40" y="250" width="120" height="60" as="geometry" />
        </mxCell>
        <mxCell id="GGdY-6drhwlK6557A2JQ-3" value="Docment" style="rounded=1;whiteSpace=wrap;html=1;strokeColor=#000059;fillColor=#000059;fontColor=#FFFFFF;" vertex="1" parent="1">
          <mxGeometry x="240" y="120" width="120" height="60" as="geometry" />
        </mxCell>
        <mxCell id="GGdY-6drhwlK6557A2JQ-4" value="Label" style="rounded=1;whiteSpace=wrap;html=1;strokeColor=#000059;fillColor=#000059;fontColor=#FFFFFF;" vertex="1" parent="1">
          <mxGeometry x="240" y="380" width="120" height="60" as="geometry" />
        </mxCell>
        <mxCell id="GGdY-6drhwlK6557A2JQ-14" style="edgeStyle=orthogonalEdgeStyle;rounded=1;orthogonalLoop=1;jettySize=auto;html=1;exitX=0;exitY=0;exitDx=0;exitDy=0;entryX=1;entryY=0.5;entryDx=0;entryDy=0;dashed=1;" edge="1" parent="1" source="GGdY-6drhwlK6557A2JQ-9" target="GGdY-6drhwlK6557A2JQ-10">
          <mxGeometry relative="1" as="geometry" />
        </mxCell>
        <mxCell id="GGdY-6drhwlK6557A2JQ-15" style="edgeStyle=orthogonalEdgeStyle;rounded=1;orthogonalLoop=1;jettySize=auto;html=1;exitX=0;exitY=0.25;exitDx=0;exitDy=0;entryX=1;entryY=0.5;entryDx=0;entryDy=0;dashed=1;" edge="1" parent="1" source="GGdY-6drhwlK6557A2JQ-9" target="GGdY-6drhwlK6557A2JQ-11">
          <mxGeometry relative="1" as="geometry" />
        </mxCell>
        <mxCell id="GGdY-6drhwlK6557A2JQ-16" style="edgeStyle=orthogonalEdgeStyle;rounded=1;orthogonalLoop=1;jettySize=auto;html=1;exitX=0;exitY=0.75;exitDx=0;exitDy=0;entryX=1;entryY=0.5;entryDx=0;entryDy=0;dashed=1;" edge="1" parent="1" source="GGdY-6drhwlK6557A2JQ-9" target="GGdY-6drhwlK6557A2JQ-12">
          <mxGeometry relative="1" as="geometry" />
        </mxCell>
        <mxCell id="GGdY-6drhwlK6557A2JQ-17" style="edgeStyle=orthogonalEdgeStyle;rounded=1;orthogonalLoop=1;jettySize=auto;html=1;exitX=0;exitY=1;exitDx=0;exitDy=0;entryX=1;entryY=0.5;entryDx=0;entryDy=0;dashed=1;" edge="1" parent="1" source="GGdY-6drhwlK6557A2JQ-9" target="GGdY-6drhwlK6557A2JQ-13">
          <mxGeometry relative="1" as="geometry" />
        </mxCell>
        <mxCell id="GGdY-6drhwlK6557A2JQ-9" value="KnowledgeCenter" style="rounded=1;whiteSpace=wrap;html=1;strokeColor=#000059;fillColor=#000059;fontColor=#FFFFFF;" vertex="1" parent="1">
          <mxGeometry x="800" y="250" width="120" height="60" as="geometry" />
        </mxCell>
        <mxCell id="GGdY-6drhwlK6557A2JQ-10" value="主题名称" style="rounded=1;whiteSpace=wrap;html=1;strokeColor=#000059;fillColor=#000059;fontColor=#FFFFFF;" vertex="1" parent="1">
          <mxGeometry x="520" y="80" width="120" height="60" as="geometry" />
        </mxCell>
        <mxCell id="GGdY-6drhwlK6557A2JQ-11" value="主题描述" style="rounded=1;whiteSpace=wrap;html=1;strokeColor=#000059;fillColor=#000059;fontColor=#FFFFFF;" vertex="1" parent="1">
          <mxGeometry x="520" y="200" width="120" height="60" as="geometry" />
        </mxCell>
        <mxCell id="GGdY-6drhwlK6557A2JQ-12" value="主题标签" style="rounded=1;whiteSpace=wrap;html=1;strokeColor=#000059;fillColor=#000059;fontColor=#FFFFFF;" vertex="1" parent="1">
          <mxGeometry x="520" y="320" width="120" height="60" as="geometry" />
        </mxCell>
        <mxCell id="GGdY-6drhwlK6557A2JQ-13" value="主题文档" style="rounded=1;whiteSpace=wrap;html=1;strokeColor=#000059;fillColor=#000059;fontColor=#FFFFFF;" vertex="1" parent="1">
          <mxGeometry x="520" y="440" width="120" height="60" as="geometry" />
        </mxCell>
      </root>
    </mxGraphModel>
  </diagram>
</mxfile>
